PathFileType	4	(X/Y/Z)	F:\MotionCapture\20160217\3\Generated_files\EMG_test03-Dynamic.trc
DataRate	CameraRate	NumFrames	NumMarkers	Units	OrigDataRate	OrigDataStartFrame	OrigNumFrames
120.00	120.00	       17	39	mm	120.00	93	       739
Frame#	Time	Top.Head			Front.Head			Rear.Head			R.Shoulder			R.Offset			R.Elbow			R.Wrist			L.Shoulder			L.Elbow			L.Wrist			R.ASIS			L.ASIS			V.Sacral			R.Thigh			R.Knee			R.Shank			R.Ankle			R.Heel			R.Toe			L.Thigh			L.Knee			L.Shank			L.Ankle			L.Heel			L.Toe			R1			R2			R3			R4			R5			R6			R7			L1			L2			L3			L4			L5			L6			L7			V_Mid_ASIS			V_Pelvis_Origin			V_R.Hip_JC			V_L.Hip_JC			V_R.Knee_JC			V_L.Knee_JC			V_R.Ankle_JC			V_L.Ankle_JC			V_Mid_Hip			V_Mid_Shoulder			V_R.Hand			V_L.Hand			V_R.Toe_Offset_Static			V_L.Toe_Offset_Static			V_R.Toe_Offset			V_L.Toe_Offset			
		X1	Y1	Z1	X2	Y2	Z2	X3	Y3	Z3	X4	Y4	Z4	X5	Y5	Z5	X6	Y6	Z6	X7	Y7	Z7	X8	Y8	Z8	X9	Y9	Z9	X10	Y10	Z10	X11	Y11	Z11	X12	Y12	Z12	X13	Y13	Z13	X14	Y14	Z14	X15	Y15	Z15	X16	Y16	Z16	X17	Y17	Z17	X18	Y18	Z18	X19	Y19	Z19	X20	Y20	Z20	X21	Y21	Z21	X22	Y22	Z22	X23	Y23	Z23	X24	Y24	Z24	X25	Y25	Z25	X26	Y26	Z26	X27	Y27	Z27	X28	Y28	Z28	X29	Y29	Z29	X30	Y30	Z30	X31	Y31	Z31	X32	Y32	Z32	X33	Y33	Z33	X34	Y34	Z34	X35	Y35	Z35	X36	Y36	Z36	X37	Y37	Z37	X38	Y38	Z38	X39	Y39	Z39	

93	0.767																																																																																																																																																																						-3840.23242	256.77020	29.65948	-3689.35303	357.77338	32.79550	-3707.82886	350.97812	464.81601	-3706.67749	401.28687	1425.61292	-3639.22144	333.63260	45.38716	-3778.04932	325.74704	54.37603	-3546.24341	438.74759	886.87842	-3626.99683	296.34387	54.99813	-3617.59180	52.00689	60.63078	-3601.40918	89.39194	576.79883	-3729.74902	127.72307	58.60498	-3630.23633	85.49858	56.08808	-3578.57129	182.16180	1640.42822	-3701.73389	113.92204	228.46489	-3648.80469	52.27990	48.45620	-3715.70679	243.94052	57.10107	-3736.01343	30.32219	936.16809	-3741.96777	343.98157	25.15966	-3595.57227	67.79620	41.96313	
94	0.775																																																																																																																																																																						-3704.45166	400.91571	1425.64209	-3592.90015	71.29988	42.46867	-3683.44165	490.10794	1095.81323	-3840.23438	257.62473	29.46614	-3708.01904	351.45752	464.92307	-3639.41650	333.58371	45.31131	-3778.18311	325.93948	54.60411	-3538.89380	436.97879	889.17212	-3627.61133	296.55457	55.59967	-3615.00513	54.32574	60.39605	-3600.43823	88.52769	576.16479	-3727.89941	129.52214	57.77131	-3741.79297	340.85138	23.30359	-3637.29150	83.78706	54.59963	
95	0.783																																																																																																																																																																						-3676.50928	44.84118	49.49953	-3840.41895	257.46854	29.63996	-3677.09863	54.63387	942.75623	-3708.13989	351.29779	465.07098	-3591.46875	75.13754	41.83158	-3623.51953	299.91119	625.41602	-3698.68091	118.05958	227.96797	-4630.14795	-124.26955	-194.52954	-3639.54565	333.68686	45.41999	-3778.39404	326.10645	54.27224	-3532.14551	434.87106	891.49744	-3627.80396	296.72330	55.84086	-3599.04590	88.63045	575.58636	-3741.82715	340.91779	23.31453	
96	0.792																																																																																																																																																																						-3722.20850	134.84923	56.70547	-3679.86841	190.94998	1726.51099	-3840.60547	257.60443	29.75752	-3675.72681	53.80975	941.97498	-3708.31396	351.76984	465.31152	-3588.99097	78.24025	41.52442	-3622.87354	300.95914	625.37799	-4509.09326	-75.29234	-160.93610	-3635.09424	53.16656	40.06525	-3639.60742	333.84760	45.64086	-3778.40747	326.44067	54.61087	-3525.20972	433.25391	894.11847	-3628.02271	296.49524	55.85894	-3741.87476	341.15775	23.32254	
97	0.800																																																																																																																																																																						-3724.08472	97.35587	26.00710	-3518.46021	431.92236	896.33588	-3840.61157	257.93799	29.90661	-3708.59277	351.45575	465.51123	-3586.94751	80.01530	41.00287	-3621.79175	301.38397	625.32153	-3678.02051	190.19440	1726.50720	-3628.04321	93.28462	53.85146	-3639.79419	333.92191	45.69029	-3778.60498	326.64609	54.38343	-3628.16284	296.42606	55.97155	-3696.05029	401.52695	1424.99988	-3674.20215	488.32861	1094.58801	-3596.43481	89.06867	574.06543	-3697.63916	273.90179	324.17386	-3847.45410	83.27839	20.02172	-3741.91357	341.14514	23.28803	
98	0.808																																																																																																																																																																						-3511.01587	430.88300	899.29913	-3708.96655	352.53558	465.05777	-3840.76514	257.89880	29.83801	-3696.39648	123.10592	227.30124	-3586.96729	79.09928	40.25373	-3685.33789	14.86372	93.40585	-3639.80859	333.83179	45.76092	-3778.68896	326.87183	54.51262	-3621.37793	95.90960	52.38298	-3628.23486	296.18600	55.60255	-3693.19604	400.51395	1424.31262	-3670.65918	487.85080	1094.21985	-3697.84253	273.80145	324.11386	-3675.87842	190.37578	1726.56250	-3659.53589	342.48135	946.06018	-3720.59302	136.79930	55.50649	-3741.96777	341.12476	23.29915	
99	0.817																																																																																																																																																																						-3674.55347	188.51274	1727.14526	-3709.10181	352.19727	465.18741	-3840.82397	257.84427	29.91338	-3695.59082	123.99172	226.74612	-3691.08423	399.68292	1424.28540	-3586.95825	79.05315	39.68113	-3504.68945	428.38211	901.56512	-3674.72266	25.79456	39.10959	-3593.33521	90.82043	573.11926	-3639.93335	333.42194	45.61108	-3778.78516	326.79510	54.41872	-3628.31592	295.96103	55.68850	-3697.91992	273.82129	324.25964	-3720.64063	136.97575	55.50673	-3741.98584	341.13568	23.23816	
100	0.825																																																																																																																																																																						-3672.39307	189.29012	1727.15503	-3709.23096	351.76093	465.19278	-3840.89136	257.92313	29.67031	-3694.84351	124.26987	226.18523	-3687.94580	400.05884	1423.36108	-3587.46924	78.66617	38.99907	-3498.06812	428.18387	905.26617	-3653.69043	341.27890	947.50409	-3639.97241	333.30618	45.52031	-3778.96167	326.81320	54.30381	-3622.71558	95.90697	51.42206	-3628.51099	295.81119	55.52850	-3664.08228	487.17169	1093.68164	-3619.86450	299.58273	624.25464	-3698.03711	273.95602	324.43347	-3720.90918	136.96019	55.48545	-3742.01465	341.19324	23.26601	
101	0.833																																																																																																																																																																						-3651.29395	342.67554	947.21753	-3709.23657	351.21799	464.88553	-3841.04834	258.07721	29.92342	-3685.01587	400.19806	1423.02502	-3587.31128	79.23643	39.00217	-3491.48315	425.63248	907.48181	-3699.57153	-112.30135	868.64142	-3640.12354	333.32349	45.40731	-3779.50732	325.34644	52.20876	-3623.12964	95.07990	50.87802	-3628.85864	295.71140	55.52736	-3660.36646	486.26346	1092.96289	-3619.34521	298.64572	623.64441	-3687.20361	14.29741	93.68182	-3697.93188	273.88278	324.30966	-3560.47021	184.99678	1642.94348	-3720.98218	136.88797	55.57120	-3742.04663	341.16455	23.21158	
102	0.842																																																																																																																																																																						-3648.53931	341.54758	947.18054	-3708.92944	350.37302	465.08652	-3841.08179	258.25812	30.04608	-3682.07935	398.20087	1423.38171	-3587.91162	79.02966	38.72813	-3484.77417	424.73767	910.79926	-3640.11743	333.17117	45.21661	-3779.18994	326.97119	54.58469	-3624.08691	94.56596	50.32349	-3629.04688	295.63962	55.59886	-3618.32959	297.76132	623.10620	-3687.45068	13.97037	93.44102	-3697.72729	273.85333	324.29895	-3557.91260	184.21671	1643.50989	-3721.12256	136.85695	55.62043	-3742.08911	341.20737	23.15609	
103	0.850																																																																																																																																																																						-3647.10791	342.08173	946.81915	-3708.74463	349.73621	464.92877	-3711.30713	-113.27126	865.81873	-3841.14575	258.10876	30.00291	-3679.41699	398.37720	1422.18262	-3657.52466	51.67273	939.98401	-3588.03931	79.04291	38.31400	-3665.15894	191.28183	1726.75598	-3478.08643	423.98685	913.10046	-3653.40503	485.79297	1092.20532	-3587.90869	94.77433	572.10468	-3640.39429	333.23029	45.08912	-3779.44800	326.81659	54.34882	-3623.83960	94.52428	50.08531	-3629.21411	295.64209	55.37596	-3617.10718	298.14975	623.24066	-3679.76221	18.24545	81.43527	-3697.35449	273.78662	324.10925	-3555.67065	184.48584	1643.98022	-3721.30273	136.48695	55.25499	-3742.11206	341.20322	23.16457	
104	0.858																																																																																																																																																																						-3708.15454	349.45728	464.67175	-3841.36719	258.37170	30.01694	-3675.92822	398.43924	1421.90588	-3587.86670	79.52327	37.99158	-3662.89624	190.83490	1726.79321	-3649.65454	485.31393	1092.13733	-3586.54248	95.51360	571.88922	-3640.52588	333.31433	44.86756	-3779.62427	326.88373	54.31287	-3623.02881	94.50015	49.86182	-3629.43237	295.51266	55.24835	-3472.19849	421.45413	915.69287	-3615.88208	296.97025	622.22601	-3678.84351	282.96838	324.41309	-3721.39673	136.04085	54.98208	-3742.17578	341.40720	23.12832	
105	0.867																																																																																																																																																																						-3693.81421	120.40140	224.06418	-3707.67920	349.61200	464.84143	-3670.26196	25.24932	42.16427	-3841.39380	258.42340	29.99419	-3673.32788	397.75415	1421.23523	-3465.67480	421.63110	918.30023	-3587.73511	79.94695	37.60187	-3550.84668	182.65327	1644.21594	-3645.84399	484.96906	1091.94861	-3640.54272	333.55344	44.57821	-3780.30420	325.21265	51.91246	-3622.93042	94.74509	49.76298	-3629.51758	295.60812	55.07823	-3660.40283	190.46179	1726.49255	-3742.23779	341.44644	23.08518	
106	0.875																																																																																																																																																																						-3694.15381	119.96565	223.54813	-3706.62622	349.24182	464.49591	-3671.29639	24.25735	41.73148	-3841.47314	258.61642	29.97192	-3459.96436	419.56439	920.97314	-3588.29492	79.81084	37.62328	-3658.45923	189.22765	1726.94287	-3670.43433	395.31049	1421.08984	-3640.72437	333.65576	44.39123	-3779.97021	327.04779	54.32705	-3622.44116	94.41402	49.69411	-3629.50610	295.52316	54.98960	-3683.31104	34.01989	934.62408	-3779.40771	84.36535	1636.46130	-3742.32739	341.58524	23.00317	
107	0.883																																																																																																																																																																						-3694.61816	119.59126	223.53134	-3705.75220	348.24423	464.25928	-3678.33691	21.66969	41.94163	-3841.66431	258.47195	29.97007	-3454.22095	419.09604	923.27722	-3588.20996	80.91533	37.12452	-3544.92358	182.72662	1644.52246	-3610.62451	297.83032	621.27972	-3667.57031	394.86407	1420.53235	-3640.65918	333.90094	44.07973	-3780.58716	325.13904	51.81916	-3622.52295	94.49181	49.45355	-3629.55176	295.57391	54.69013	-3678.96460	33.27913	934.21680	-3584.60498	91.49727	568.72882	-3694.77393	273.78607	323.41394	-3742.35474	341.92200	23.00455	
108	0.892																																																																																																																																																																						-3704.44678	347.93002	464.46353	-3678.64868	20.88223	41.75433	-3841.64111	258.61652	29.98904	-3448.72754	417.80334	926.00757	-3608.42261	298.37424	621.04816	-3588.61572	80.40691	37.07779	-3652.68262	189.91734	1726.31104	-3663.94678	394.97562	1420.00427	-3640.61646	333.89212	43.91680	-3780.64087	325.20227	51.84443	-3586.99634	78.39211	58.93344	-3629.57397	295.46649	54.20062	-3635.15137	485.21631	1091.69080	-3742.37354	342.26538	22.88308	
109	0.900																																																																																																																																																																						-3443.24023	418.70056	928.39429	-3678.24121	20.10702	41.61789	-3841.72534	258.73181	30.11799	-3605.73755	298.82217	620.43073	-3588.93921	79.04126	37.11140	-3649.85010	189.13680	1726.27710	-3725.25122	95.70381	22.95428	-3578.59302	89.53351	567.94324	-3640.43921	334.18341	43.77980	-3780.20166	326.91675	54.46094	-3629.59204	295.34012	53.61679	-3671.05151	32.44791	934.25665	-3742.36865	342.39249	22.95325	
